<svg width="200" height="60" viewBox="0 0 200 60" xmlns="http://www.w3.org/2000/svg">
  <defs>
    <linearGradient id="gradient" x1="0%" y1="0%" x2="100%" y2="100%">
      <stop offset="0%" style="stop-color:#2563eb;stop-opacity:1" />
      <stop offset="100%" style="stop-color:#1d4ed8;stop-opacity:1" />
    </linearGradient>
    <filter id="shadow">
      <feDropShadow dx="0" dy="2" stdDeviation="3" flood-opacity="0.3"/>
    </filter>
  </defs>
  
  <!-- Background rounded rectangle -->
  <rect x="2" y="2" width="196" height="56" rx="12" ry="12" fill="url(#gradient)" filter="url(#shadow)"/>
  
  <!-- Shield icon -->
  <g transform="translate(15, 12)">
    <path d="M18 1.5c-7.5 0-13.5 3-13.5 3v12c0 9 6 13.5 13.5 13.5s13.5-4.5 13.5-13.5v-12s-6-3-13.5-3z" 
          fill="white" fill-opacity="0.9"/>
    <path d="M18 7.5L24 13.5L15 22.5L12 19.5L15 16.5L18 19.5L27 10.5L30 13.5L18 25.5L9 16.5L18 7.5z" 
          fill="#2563eb" fill-opacity="0.8"/>
  </g>
  
  <!-- WhoopsPay text -->
  <text x="55" y="20" font-family="Arial, sans-serif" font-size="16" font-weight="bold" fill="white">
    Whoops
  </text>
  <text x="115" y="20" font-family="Arial, sans-serif" font-size="16" font-weight="bold" fill="#fbbf24">
    Pay
  </text>
  
  <!-- Tagline -->
  <text x="55" y="38" font-family="Arial, sans-serif" font-size="10" fill="white" fill-opacity="0.8">
    Secure Payment Platform
  </text>
  
  <!-- Warning icon (small) -->
  <g transform="translate(175, 15)">
    <circle cx="6" cy="6" r="6" fill="#fbbf24"/>
    <text x="6" y="10" font-family="Arial, sans-serif" font-size="8" font-weight="bold" fill="#1f2937" text-anchor="middle">!</text>
  </g>
</svg>